<svg xmlns="http://www.w3.org/2000/svg" viewBox="-449 201 100 100" enable-background="new -449 201 100 100"><g fill="#a63f38"><path d="M-416.4 297.5c.3-.3 30.2-28.8 17.2-74.8l-1.4.4c12.7 45-16.5 73-16.8 73.2l1 1.2zM-401.3 280.1s11.6 3 15.5-9.4c.1.1-12.2-2.6-15.5 9.4zM-381.2 253.8s-.3 13.4-15 11.8c.1 0 .9-12.1 15-11.8zM-394.2 250s11.6 1.8 13.1-15.2c0 0-14.1-.7-13.1 15.2zM-394.3 232.5s13.1-5.7 5.4-22c0 0-11.4 7.7-5.4 22zM-399.5 221.5s7.5-12.6-5.2-19.5c0 0-8.4 7.8 5.2 19.5zM-406 278.3s2.5-12.2-11.5-15.4c0 .1-3.4 12.6 11.5 15.4zM-401.6 263.5s.9-12.6-12.7-16.6c0 0-.9 17 12.7 16.6zM-399.9 248.8s.3-14.5-13.9-15.1c.1 0 4.8 16.7 13.9 15.1zM-401.2 232.4s.4-11.3-12.5-13.4c0-.1.2 12.6 12.5 13.4z"/></g></svg>
